<svg width="36" height="36" viewBox="0 0 36 36" fill="none" xmlns="http://www.w3.org/2000/svg">
<path d="M12.0702 26.8942C10.4395 26.8942 9.1202 28.2283 9.1202 29.859C9.1202 31.4896 10.4395 32.8238 12.0702 32.8238C13.7008 32.8238 15.035 31.4896 15.035 29.859C15.035 28.2283 13.7008 26.8942 12.0702 26.8942ZM3.17578 3.17578V6.14058H6.14058L11.4772 17.392L9.47598 21.0239C9.2388 21.4389 9.10538 21.9281 9.10538 22.447C9.10538 24.0776 10.4395 25.4118 12.0702 25.4118H29.859V22.447H12.6928C12.4853 22.447 12.3222 22.2839 12.3222 22.0764L12.3667 21.8985L13.7008 19.4822H24.7447C25.8565 19.4822 26.8349 18.8744 27.3389 17.9553L32.6459 8.33453C32.7645 8.127 32.8238 7.87499 32.8238 7.62298C32.8238 6.80766 32.1567 6.14058 31.3414 6.14058H9.41668L8.02323 3.17578H3.17578ZM26.8942 26.8942C25.2635 26.8942 23.9442 28.2283 23.9442 29.859C23.9442 31.4896 25.2635 32.8238 26.8942 32.8238C28.5248 32.8238 29.859 31.4896 29.859 29.859C29.859 28.2283 28.5248 26.8942 26.8942 26.8942Z" fill="#1D00B2"/>
</svg>
